<?xml version="1.0" encoding="utf-8"?>
<!-- Generator: Adobe Illustrator 22.1.0, SVG Export Plug-In . SVG Version: 6.00 Build 0)  -->
<svg version="1.1" id="Layer_1" xmlns="http://www.w3.org/2000/svg" xmlns:xlink="http://www.w3.org/1999/xlink" x="0px" y="0px"
	 viewBox="0 0 400 102" style="enable-background:new 0 0 400 102;" xml:space="preserve">
<style type="text/css">
	.st0{enable-background:new    ;}
	.st1{fill:#231F20;}
</style>
<title>Artboard 1</title>
<g class="st0">
	<path class="st1" d="M67.2,71.3c0-1.2,0.2-4.2,0.2-5.5c0-6.2-2.6-8.2-8.8-8.2h-2.1v-9.3h2.1c6.2,0,8.8-2,8.8-8.2
		c0-1.4-0.2-4.3-0.2-5.5c0-8.2,4.1-13.3,18.7-15.8l2.2,8.1c-8.5,2.4-9.8,4.6-9.8,9.5c0,1.6,0.2,4.2,0.2,5.9c0,5.8-3,9-8.3,10.7
		c5.4,1.8,8.3,4.9,8.3,10.7c0,1.7-0.2,4.3-0.2,5.9c0,4.9,1.3,7.1,9.8,9.5l-2.2,8.1C71.2,84.6,67.2,79.5,67.2,71.3z"/>
	<path class="st1" d="M98.5,19.9h22.9c13.4,0,21.4,7.9,21.4,19.5c0,13-10.1,19.7-22.6,19.7h-9.4v16.8H98.5V19.9z M120.6,48.1
		c6.2,0,9.8-3.7,9.8-8.6c0-5.5-3.8-8.5-10-8.5h-9.5v17.1H120.6z"/>
</g>
<g class="st0">
	<path class="st1" d="M149.4,47.9c0-15.9,12.6-29,29.8-29c17.3,0,29.7,12.9,29.7,29c0,15.9-12.6,29-29.8,29S149.4,64,149.4,47.9z
		 M196.1,47.9c0-9.6-7-17.6-17-17.6c-9.9,0-16.8,7.8-16.8,17.6c0,9.6,7,17.6,17,17.6C189.2,65.5,196.1,57.7,196.1,47.9z"/>
</g>
<g class="st0">
	<path class="st1" d="M215.7,67.7L223,59c5,4.2,10.3,6.8,16.7,6.8c5,0,8.1-2,8.1-5.4c0-3.1-1.9-4.7-11.3-7.1
		c-11.3-2.9-18.6-6-18.6-17.3c0-10.2,8.2-16.9,19.6-16.9c8.2,0,15.1,2.6,20.8,7.1l-6.4,9.3c-5-3.4-9.8-5.5-14.6-5.5
		c-4.7,0-7.2,2.2-7.2,5c0,3.7,2.4,4.9,12.1,7.4c11.4,3,17.8,7,17.8,17c0,11.1-8.5,17.4-20.6,17.4C231,76.7,222.4,73.7,215.7,67.7z"
		/>
</g>
<g class="st0">
	<path class="st1" d="M282.6,31.3h-17V19.9h46.4v11.4h-17v44.6h-12.3V31.3z"/>
	<path class="st1" d="M318.4,79.1c8.5-2.4,9.8-4.6,9.8-9.5c0-1.6-0.2-4.2-0.2-5.9c0-5.8,3-9,8.3-10.7c-5.4-1.8-8.3-4.9-8.3-10.7
		c0-1.7,0.2-4.3,0.2-5.9c0-4.9-1.3-7.1-9.8-9.5l2.2-8.1c14.6,2.6,18.7,7.7,18.7,15.8c0,1.2-0.2,4.2-0.2,5.5c0,6.2,2.6,8.2,8.8,8.2
		h2.1v9.3h-2.1c-6.2,0-8.8,2-8.8,8.2c0,1.4,0.2,4.3,0.2,5.5c0,8.2-4.1,13.3-18.7,15.8L318.4,79.1z"/>
</g>
</svg>
